<?xml version="1.0" standalone="no"?>
<!DOCTYPE svg PUBLIC "-//W3C//DTD SVG 20010904//EN"
 "http://www.w3.org/TR/2001/REC-SVG-20010904/DTD/svg10.dtd">
<svg version="1.0" xmlns="http://www.w3.org/2000/svg"
 width="500.000000pt" height="500.000000pt" viewBox="0 0 500.000000 500.000000"
 preserveAspectRatio="xMidYMid meet">

<g transform="translate(0.000000,500.000000) scale(0.100000,-0.100000)"
fill="#000000" stroke="none">
<path d="M2972 3098 c-17 -17 -17 -339 0 -356 17 -17 729 -17 746 0 8 8 12 62
12 178 0 116 -4 170 -12 178 -17 17 -729 17 -746 0z m216 -130 c3 -23 -1 -28
-17 -28 -18 0 -21 -6 -21 -45 0 -43 -1 -45 -30 -45 -29 0 -30 2 -30 45 0 38
-3 45 -20 45 -16 0 -20 7 -20 30 l0 31 68 -3 c65 -3 67 -4 70 -30z m130 10 c3
-13 -3 -18 -22 -18 -14 0 -28 -4 -31 -10 -4 -6 5 -10 19 -10 38 0 36 -37 -1
-43 -26 -4 -26 -4 5 -6 25 -1 32 -5 32 -21 0 -18 -7 -20 -55 -20 l-55 0 0 76
0 75 52 -3 c41 -2 54 -7 56 -20z m136 1 c14 -11 26 -27 26 -36 0 -12 -8 -14
-45 -9 -41 7 -45 5 -45 -13 0 -19 4 -20 45 -14 50 6 58 -4 25 -37 -12 -12 -33
-20 -55 -20 -46 0 -75 29 -75 74 0 39 37 76 75 76 12 0 34 -9 49 -21z m104 -6
c5 -31 22 -29 22 3 0 22 4 25 28 22 26 -3 27 -5 30 -75 l3 -73 -31 0 c-25 0
-30 4 -30 25 0 14 -4 25 -10 25 -5 0 -10 -11 -10 -25 0 -21 -5 -25 -30 -25
l-30 0 0 76 0 75 28 -3 c19 -2 28 -9 30 -25z"/>
</g>
</svg>
